<?xml version="1.0" encoding="UTF-8"?>
<svg id="logo_sies" xmlns="http://www.w3.org/2000/svg" version="1.1" viewBox="0 0 1167.77 752.85">
  <g id="sies-logo-text">
    <path d="M182.7,305.59c11.96,15.38,27.91,24.49,44.14,24.49s25.63-8.54,25.63-22.78c0-36.73-90.55-26.77-90.55-94.25,0-31.61,26.2-57.8,64.35-57.8,29.9,0,52.68,13.38,69.76,33.6l-29.61,26.77c-11.67-15.09-24.77-25.06-39.86-25.06-14.24,0-23.63,9.11-23.63,21.07,0,36.16,90.55,25.91,90.55,94.25-.57,37.59-29.61,60.08-66.35,60.08-33.6,0-56.09-12.24-73.75-33.32l29.33-27.05Z"/>
    <path d="M325.64,168.06c0-12.81,10.82-23.63,23.63-23.63s23.35,10.82,23.35,23.63-10.54,23.63-23.35,23.63-23.63-10.82-23.63-23.63ZM331.05,216.75h36.16v143.51h-36.16v-143.51Z"/>
    <path d="M479.97,365.96c-50.97,0-79.73-35.59-79.73-77.45s26.77-77.45,73.75-77.45c39.86,0,66.06,27.05,66.06,64.64,0,7.97-1.14,15.38-2.28,20.22h-100.51c3.42,26.77,19.93,37.59,42.43,37.59,15.66,0,29.33-6.83,37.02-17.08l25.91,20.5c-13.38,17.94-35.59,29.04-62.64,29.04ZM438.39,269.71h66.06c-.57-14.52-11.1-29.04-31.32-29.04-18.51,0-30.75,10.25-34.74,29.04Z"/>
    <path d="M584.75,317.83c8.83,11.1,19.36,19.08,33.03,19.08,11.67,0,17.65-6.83,17.65-15.38,0-25.06-68.62-15.66-68.62-66.06,0-25.34,21.36-44.42,51.25-44.42,21.93,0,41.86,10.54,52.11,24.49l-23.92,21.07c-7.4-9.11-16.8-16.52-27.9-16.52s-16.8,6.26-16.8,13.67c0,24.49,68.62,15.95,68.62,65.49-.57,30.18-24.77,46.7-51.82,46.7-25.63,0-43.85-10.25-57.52-26.48l23.92-21.64Z"/>
    <path d="M164.36,431c3.01,3.88,6.51,5.95,10.59,5.95,4.89,0,7.7-2.95,7.7-6.95,0-9.9-20.8-7.77-20.8-22.24,0-6.51,5.39-11.84,13.03-11.84,6.14,0,10.65,2.82,13.91,7.14l-4.45,3.88c-2.57-3.7-5.64-5.76-9.4-5.76-4.32,0-7.08,2.69-7.08,6.45,0,9.83,20.73,7.58,20.73,22.17,0,7.58-5.83,12.4-13.59,12.4-6.45,0-11.21-2.44-15.03-7.2l4.38-4.01ZM199.75,414.27h-5.95v-4.82h5.95v-7.89h5.39v7.89h10.96v4.82h-10.96v16.16c0,4.95,2.51,6.33,6.33,6.33,2.07,0,3.51-.25,4.7-.75v4.76c-1.5.63-3.19.88-5.45.88-7.02,0-10.96-3.51-10.96-11.21v-16.16ZM222.43,433.06c0-4.76,3.63-8.14,10.34-9.27l10.65-1.75v-2.19c0-4.38-3.13-6.89-7.64-6.89-3.63,0-6.58,1.69-8.52,4.38l-4.01-3.07c2.76-3.76,7.2-6.08,12.72-6.08,8.02,0,12.78,4.7,12.78,11.65v21.17h-5.32v-4.01c-2.38,3.07-6.51,4.88-10.59,4.88-6.2,0-10.4-3.45-10.4-8.83ZM233.7,437.51c4.2,0,7.64-2,9.71-5.39v-6.2l-9.33,1.57c-4.32.75-6.26,2.69-6.26,5.39s2.19,4.63,5.89,4.63ZM261.27,414.27h-5.95v-4.82h5.95v-7.89h5.39v7.89h10.96v4.82h-10.96v16.16c0,4.95,2.51,6.33,6.33,6.33,2.07,0,3.51-.25,4.7-.75v4.76c-1.5.63-3.19.88-5.45.88-7.02,0-10.96-3.51-10.96-11.21v-16.16ZM284.7,397.49c0-2,1.69-3.7,3.76-3.7s3.7,1.69,3.7,3.7-1.63,3.76-3.7,3.76-3.76-1.69-3.76-3.76ZM285.76,409.45h5.32v31.57h-5.32v-31.57ZM302.49,433.5c2.19,2.76,4.82,4.32,8.02,4.32,3.51,0,5.51-2.13,5.51-4.89,0-7.08-15.78-4.57-15.78-15.72,0-4.95,4.2-9.02,10.27-9.02,4.51,0,8.39,2.13,10.59,5.2l-3.7,3.13c-1.69-2.38-4.07-3.88-6.83-3.88-3.38,0-5.2,2-5.2,4.45,0,7.08,15.85,4.82,15.85,15.6-.06,5.89-4.76,9.58-10.65,9.58-5.01,0-8.96-2-11.84-5.58l3.76-3.19ZM331.93,414.27h-5.95v-4.82h5.95v-7.89h5.39v7.89h10.96v4.82h-10.96v16.16c0,4.95,2.51,6.33,6.33,6.33,2.07,0,3.51-.25,4.7-.75v4.76c-1.5.63-3.19.88-5.45.88-7.02,0-10.96-3.51-10.96-11.21v-16.16ZM355.36,397.49c0-2,1.69-3.7,3.76-3.7s3.7,1.69,3.7,3.7-1.63,3.76-3.7,3.76-3.76-1.69-3.76-3.76ZM356.42,409.45h5.32v31.57h-5.32v-31.57ZM386.55,408.2c4.7,0,8.39,1.82,11.21,5.07v-3.82h5.32v46.98h-5.32v-19.23c-2.82,3.26-6.51,5.07-11.21,5.07-9.9,0-16.22-7.83-16.22-17.04s6.33-17.04,16.22-17.04ZM387.12,437.26c4.45,0,8.27-2.13,10.65-5.89v-12.28c-2.44-3.82-6.26-5.89-10.65-5.89-6.64,0-11.21,5.32-11.21,12.03s4.57,12.03,11.21,12.03ZM436.35,409.45h5.32v17.85c0,9.46-5.45,14.97-14.03,14.97s-13.97-5.51-13.97-14.97v-17.85h5.32v18.04c0,6.2,3.32,9.77,8.71,9.77s8.64-3.57,8.64-9.77v-18.04ZM466.74,442.27c-10.65,0-17.23-7.83-17.23-17.04s6.14-17.04,15.91-17.04c8.58,0,14.16,6.01,14.16,13.78,0,1.25-.19,2.44-.38,3.32h-24.24c.19,7.58,5.01,12.15,11.78,12.15,4.07,0,7.52-1.88,9.58-4.7l3.95,3.07c-2.94,3.95-7.64,6.45-13.53,6.45ZM455.34,421.23h18.92c-.19-4.63-3.38-8.52-8.96-8.52-5.2,0-8.83,3.07-9.96,8.52ZM505.51,409.45h5.32v3.76c2.82-3.19,6.51-5.01,11.21-5.01,9.9,0,16.22,7.83,16.22,17.04s-6.33,17.04-16.22,17.04c-4.7,0-8.39-1.82-11.21-5.01v19.17h-5.32v-46.98ZM510.84,419.1v12.28c2.44,3.82,6.26,5.89,10.59,5.89,6.7,0,11.27-5.32,11.27-12.03s-4.57-12.03-11.27-12.03c-4.38,0-8.21,2.13-10.59,5.89ZM568.84,409.45h5.32v17.85c0,9.46-5.45,14.97-14.03,14.97s-13.97-5.51-13.97-14.97v-17.85h5.32v18.04c0,6.2,3.32,9.77,8.71,9.77s8.64-3.57,8.64-9.77v-18.04ZM601.23,442.27c-4.7,0-8.39-1.82-11.21-5.01v3.76h-5.32v-46.98h5.32v19.17c2.82-3.19,6.51-5.01,11.21-5.01,9.9,0,16.22,7.83,16.22,17.04s-6.33,17.04-16.22,17.04ZM590.02,419.03v12.4c2.44,3.76,6.26,5.83,10.58,5.83,6.7,0,11.28-5.32,11.28-12.03s-4.57-12.03-11.28-12.03c-4.38,0-8.27,2.13-10.58,5.83ZM626.1,394.04h5.32v46.98h-5.32v-46.98ZM641.63,397.49c0-2,1.69-3.7,3.76-3.7s3.7,1.69,3.7,3.7-1.63,3.76-3.7,3.76-3.76-1.69-3.76-3.76ZM642.7,409.45h5.32v31.57h-5.32v-31.57ZM672.83,408.2c4.7,0,8.39,1.82,11.21,5.07v-3.82h5.32v46.98h-5.32v-19.23c-2.82,3.26-6.51,5.07-11.21,5.07-9.9,0-16.22-7.83-16.22-17.04s6.33-17.04,16.22-17.04ZM673.39,437.26c4.45,0,8.27-2.13,10.65-5.89v-12.28c-2.44-3.82-6.26-5.89-10.65-5.89-6.64,0-11.21,5.32-11.21,12.03s4.57,12.03,11.21,12.03ZM722.63,409.45h5.32v17.85c0,9.46-5.45,14.97-14.03,14.97s-13.97-5.51-13.97-14.97v-17.85h5.32v18.04c0,6.2,3.32,9.77,8.71,9.77s8.64-3.57,8.64-9.77v-18.04ZM753.01,442.27c-10.65,0-17.22-7.83-17.22-17.04s6.14-17.04,15.91-17.04c8.58,0,14.16,6.01,14.16,13.78,0,1.25-.19,2.44-.38,3.32h-24.24c.19,7.58,5.01,12.15,11.78,12.15,4.07,0,7.52-1.88,9.58-4.7l3.95,3.07c-2.94,3.95-7.64,6.45-13.53,6.45ZM741.61,421.23h18.92c-.19-4.63-3.38-8.52-8.96-8.52-5.2,0-8.83,3.07-9.96,8.52ZM175.51,483.37c4.7,0,8.39,1.82,11.21,5.01v-19.17h5.32v46.98h-5.32v-3.76c-2.82,3.2-6.51,5.01-11.21,5.01-9.9,0-16.22-7.83-16.22-17.04s6.33-17.04,16.22-17.04ZM176.13,512.43c4.38,0,8.27-2.13,10.59-5.82v-12.4c-2.44-3.76-6.26-5.83-10.59-5.83-6.7,0-11.21,5.32-11.21,12.03s4.51,12.03,11.21,12.03ZM217.79,517.45c-10.65,0-17.23-7.83-17.23-17.04s6.14-17.04,15.91-17.04c8.58,0,14.16,6.01,14.16,13.78,0,1.25-.19,2.44-.38,3.32h-24.24c.19,7.58,5.01,12.15,11.78,12.15,4.07,0,7.52-1.88,9.58-4.7l3.95,3.07c-2.94,3.95-7.64,6.45-13.53,6.45ZM206.39,496.4h18.92c-.19-4.63-3.38-8.52-8.96-8.52-5.2,0-8.83,3.07-9.96,8.52ZM256.57,469.21h5.32v46.98h-5.32v-46.98ZM270.54,489.13l5.32-16.79h6.08l-6.45,16.79h-4.95ZM300.92,517.45c-10.65,0-17.23-7.83-17.23-17.04s6.14-17.04,15.91-17.04c8.58,0,14.16,6.01,14.16,13.78,0,1.25-.19,2.44-.38,3.32h-24.24c.19,7.58,5.01,12.15,11.78,12.15,4.07,0,7.52-1.88,9.58-4.7l3.95,3.07c-2.94,3.95-7.64,6.45-13.53,6.45ZM289.52,496.4h18.92c-.19-4.63-3.38-8.52-8.96-8.52-5.2,0-8.83,3.07-9.96,8.52ZM322.78,484.62h5.32v3.57c2.57-2.82,5.83-4.82,10.52-4.82,7.08,0,12.34,4.76,12.34,13.72v19.1h-5.32v-18.92c0-5.64-3.19-8.89-8.08-8.89-4.57,0-7.45,2.63-9.46,5.95v21.86h-5.32v-31.57ZM362.06,508.68c2.19,2.76,4.82,4.32,8.02,4.32,3.51,0,5.51-2.13,5.51-4.89,0-7.08-15.78-4.57-15.78-15.72,0-4.95,4.2-9.02,10.27-9.02,4.51,0,8.39,2.13,10.59,5.2l-3.7,3.13c-1.69-2.38-4.07-3.88-6.83-3.88-3.38,0-5.2,2-5.2,4.45,0,7.08,15.85,4.82,15.85,15.6-.06,5.89-4.76,9.58-10.65,9.58-5.01,0-8.96-2-11.84-5.57l3.76-3.2ZM403.59,517.45c-10.65,0-17.23-7.83-17.23-17.04s6.14-17.04,15.91-17.04c8.58,0,14.16,6.01,14.16,13.78,0,1.25-.19,2.44-.38,3.32h-24.24c.19,7.58,5.01,12.15,11.78,12.15,4.07,0,7.52-1.88,9.58-4.7l3.95,3.07c-2.94,3.95-7.64,6.45-13.53,6.45ZM392.19,496.4h18.92c-.19-4.63-3.38-8.52-8.96-8.52-5.2,0-8.83,3.07-9.96,8.52ZM424.39,472.66c0-2,1.69-3.7,3.76-3.7s3.7,1.69,3.7,3.7-1.63,3.76-3.7,3.76-3.76-1.69-3.76-3.76ZM425.45,484.62h5.32v31.57h-5.32v-31.57ZM443.12,513.94c-1.44-1.13-2.19-2.82-2.19-4.51,0-2.51,1.32-4.57,3.76-6.14-2.76-2.07-4.38-5.26-4.38-8.77,0-6.08,4.76-11.21,12.28-11.21,2.32,0,4.38.5,6.08,1.32h11.71v4.63h-6.83c.88,1.57,1.32,3.38,1.32,5.26,0,6.01-4.7,11.15-12.28,11.15-1.57,0-3.07-.25-4.38-.63-1.32.94-2.07,2.07-2.07,3.26,0,1.31.69,2.25,2.63,2.25h9.02c8.33,0,12.21,4.07,12.21,9.71,0,6.64-6.64,11.59-16.1,11.59s-15.47-3.63-15.47-9.96c0-3.2,1.57-5.76,4.7-7.96ZM453.83,527.4c6.64,0,10.84-2.63,10.84-6.76,0-3.01-1.69-5.39-7.33-5.39h-10.21c-2.19,1.63-3.51,3.51-3.51,6.01,0,3.82,3.95,6.14,10.21,6.14ZM459.84,494.52c0-3.88-2.63-7.02-7.2-7.02s-7.27,3.13-7.27,7.02,2.57,6.95,7.27,6.95,7.2-3.13,7.2-6.95ZM476.88,484.62h5.32v3.57c2.57-2.82,5.83-4.82,10.52-4.82,7.08,0,12.34,4.76,12.34,13.72v19.1h-5.32v-18.92c0-5.64-3.19-8.89-8.08-8.89-4.57,0-7.45,2.63-9.46,5.95v21.86h-5.32v-31.57ZM530.32,517.45c-10.65,0-17.23-7.83-17.23-17.04s6.14-17.04,15.91-17.04c8.58,0,14.16,6.01,14.16,13.78,0,1.25-.19,2.44-.38,3.32h-24.24c.19,7.58,5.01,12.15,11.78,12.15,4.07,0,7.52-1.88,9.58-4.7l3.95,3.07c-2.94,3.95-7.64,6.45-13.53,6.45ZM518.92,496.4h18.92c-.19-4.63-3.38-8.52-8.96-8.52-5.2,0-8.83,3.07-9.96,8.52ZM552.18,484.62h5.32v3.45c2.38-2.76,5.51-4.7,9.9-4.7s8.33,2.07,10.27,6.08c2.51-3.45,5.83-6.08,11.27-6.08,6.76,0,11.71,4.51,11.71,13.09v19.73h-5.32v-19.54c0-5.26-2.94-8.27-7.45-8.27-4.01,0-6.83,2.26-8.89,5.95.06.69.12,1.38.12,2.13v19.73h-5.32v-19.54c0-5.26-2.88-8.27-7.45-8.27-4.32,0-7.02,2.69-8.83,5.95v21.86h-5.32v-31.57ZM625.91,517.45c-10.65,0-17.22-7.83-17.22-17.04s6.14-17.04,15.91-17.04c8.58,0,14.16,6.01,14.16,13.78,0,1.25-.19,2.44-.38,3.32h-24.24c.19,7.58,5.01,12.15,11.78,12.15,4.07,0,7.52-1.88,9.58-4.7l3.95,3.07c-2.94,3.95-7.64,6.45-13.53,6.45ZM614.51,496.4h18.92c-.19-4.63-3.38-8.52-8.96-8.52-5.2,0-8.83,3.07-9.96,8.52ZM647.77,484.62h5.32v3.57c2.57-2.82,5.83-4.82,10.52-4.82,7.08,0,12.34,4.76,12.34,13.72v19.1h-5.32v-18.92c0-5.64-3.19-8.89-8.08-8.89-4.57,0-7.45,2.63-9.46,5.95v21.86h-5.32v-31.57ZM688.49,489.45h-5.95v-4.82h5.95v-7.89h5.39v7.89h10.96v4.82h-10.96v16.16c0,4.95,2.5,6.33,6.33,6.33,2.07,0,3.51-.25,4.7-.75v4.76c-1.5.63-3.2.88-5.45.88-7.01,0-10.96-3.51-10.96-11.21v-16.16ZM730.27,508.68c2.19,2.76,4.82,4.32,8.02,4.32,3.51,0,5.51-2.13,5.51-4.89,0-7.08-15.79-4.57-15.79-15.72,0-4.95,4.2-9.02,10.27-9.02,4.51,0,8.39,2.13,10.59,5.2l-3.7,3.13c-1.69-2.38-4.07-3.88-6.83-3.88-3.38,0-5.2,2-5.2,4.45,0,7.08,15.85,4.82,15.85,15.6-.06,5.89-4.76,9.58-10.65,9.58-5.01,0-8.96-2-11.84-5.57l3.76-3.2ZM779.63,484.62h5.32v17.85c0,9.46-5.45,14.97-14.03,14.97s-13.97-5.51-13.97-14.97v-17.85h5.32v18.04c0,6.2,3.32,9.77,8.71,9.77s8.64-3.57,8.64-9.77v-18.04ZM795.49,484.62h5.32v3.76c2.82-3.19,6.51-5.01,11.21-5.01,9.9,0,16.22,7.83,16.22,17.04s-6.33,17.04-16.22,17.04c-4.7,0-8.39-1.82-11.21-5.01v19.17h-5.32v-46.98ZM800.81,494.27v12.28c2.44,3.82,6.26,5.89,10.58,5.89,6.7,0,11.28-5.32,11.28-12.03s-4.57-12.03-11.28-12.03c-4.38,0-8.21,2.13-10.58,5.89ZM851.67,517.45c-10.65,0-17.22-7.83-17.22-17.04s6.14-17.04,15.91-17.04c8.58,0,14.16,6.01,14.16,13.78,0,1.25-.19,2.44-.38,3.32h-24.24c.19,7.58,5.01,12.15,11.78,12.15,4.07,0,7.52-1.88,9.58-4.7l3.95,3.07c-2.94,3.95-7.64,6.45-13.53,6.45ZM840.27,496.4h18.92c-.19-4.63-3.38-8.52-8.96-8.52-5.2,0-8.83,3.07-9.96,8.52ZM847.98,479.61l6.51-10.4h6.01l-7.33,10.4h-5.2ZM873.54,484.62h5.32v3.95c2.32-2.76,5.2-4.57,9.21-4.57,1,0,1.94.13,2.69.38v5.2c-.94-.25-1.88-.38-3.13-.38-4.13,0-6.83,2.13-8.77,5.32v21.67h-5.32v-31.57ZM897.34,472.66c0-2,1.69-3.7,3.76-3.7s3.7,1.69,3.7,3.7-1.63,3.76-3.7,3.76-3.76-1.69-3.76-3.76ZM898.41,484.62h5.32v31.57h-5.32v-31.57ZM929.54,517.45c-10.65,0-17.22-7.83-17.22-17.04s6.14-17.04,15.91-17.04c8.58,0,14.16,6.01,14.16,13.78,0,1.25-.19,2.44-.38,3.32h-24.24c.19,7.58,5.01,12.15,11.78,12.15,4.07,0,7.52-1.88,9.58-4.7l3.95,3.07c-2.94,3.95-7.64,6.45-13.53,6.45ZM918.14,496.4h18.92c-.19-4.63-3.38-8.52-8.96-8.52-5.2,0-8.83,3.07-9.96,8.52ZM972.89,484.62h5.32v17.85c0,9.46-5.45,14.97-14.03,14.97s-13.97-5.51-13.97-14.97v-17.85h5.32v18.04c0,6.2,3.32,9.77,8.71,9.77s8.64-3.57,8.64-9.77v-18.04ZM988.74,484.62h5.32v3.95c2.32-2.76,5.2-4.57,9.21-4.57,1,0,1.94.13,2.69.38v5.2c-.94-.25-1.88-.38-3.13-.38-4.13,0-6.83,2.13-8.77,5.32v21.67h-5.32v-31.57ZM176.51,592.62c-10.65,0-17.23-7.83-17.23-17.04s6.14-17.04,15.91-17.04c8.58,0,14.16,6.01,14.16,13.78,0,1.25-.19,2.44-.38,3.32h-24.24c.19,7.58,5.01,12.15,11.78,12.15,4.07,0,7.52-1.88,9.58-4.7l3.95,3.07c-2.94,3.95-7.64,6.45-13.53,6.45ZM165.11,571.57h18.92c-.19-4.64-3.38-8.52-8.96-8.52-5.2,0-8.83,3.07-9.96,8.52ZM200,564.62h-5.95v-4.82h5.95v-7.89h5.39v7.89h10.96v4.82h-10.96v16.16c0,4.95,2.51,6.33,6.33,6.33,2.07,0,3.51-.25,4.7-.75v4.76c-1.5.63-3.19.88-5.45.88-7.02,0-10.96-3.51-10.96-11.21v-16.16ZM254.94,558.54c4.7,0,8.39,1.82,11.21,5.01v-19.17h5.32v46.98h-5.32v-3.76c-2.82,3.19-6.51,5.01-11.21,5.01-9.9,0-16.22-7.83-16.22-17.04s6.33-17.04,16.22-17.04ZM255.57,587.61c4.38,0,8.27-2.13,10.59-5.83v-12.4c-2.44-3.76-6.26-5.83-10.59-5.83-6.7,0-11.21,5.32-11.21,12.03s4.51,12.03,11.21,12.03ZM297.22,592.62c-10.65,0-17.23-7.83-17.23-17.04s6.14-17.04,15.91-17.04c8.58,0,14.16,6.01,14.16,13.78,0,1.25-.19,2.44-.38,3.32h-24.24c.19,7.58,5.01,12.15,11.78,12.15,4.07,0,7.52-1.88,9.58-4.7l3.95,3.07c-2.94,3.95-7.64,6.45-13.53,6.45ZM285.82,571.57h18.92c-.19-4.64-3.38-8.52-8.96-8.52-5.2,0-8.83,3.07-9.96,8.52ZM336,544.39h5.32v46.98h-5.32v-46.98ZM350.78,583.41c0-4.76,3.63-8.14,10.34-9.27l10.65-1.75v-2.19c0-4.38-3.13-6.89-7.64-6.89-3.63,0-6.58,1.69-8.52,4.38l-4.01-3.07c2.76-3.76,7.2-6.08,12.72-6.08,8.02,0,12.78,4.7,12.78,11.65v21.17h-5.32v-4.01c-2.38,3.07-6.51,4.89-10.59,4.89-6.2,0-10.4-3.45-10.4-8.83ZM362.06,587.86c4.2,0,7.64-2,9.71-5.39v-6.2l-9.33,1.57c-4.32.75-6.26,2.69-6.26,5.39s2.19,4.64,5.89,4.64ZM404.72,559.79h5.32v3.95c2.32-2.76,5.2-4.57,9.21-4.57,1,0,1.94.13,2.69.38v5.2c-.94-.25-1.88-.38-3.13-.38-4.13,0-6.83,2.13-8.77,5.32v21.67h-5.32v-31.57ZM442.24,592.62c-10.65,0-17.23-7.83-17.23-17.04s6.14-17.04,15.91-17.04c8.58,0,14.16,6.01,14.16,13.78,0,1.25-.19,2.44-.38,3.32h-24.24c.19,7.58,5.01,12.15,11.78,12.15,4.07,0,7.52-1.88,9.58-4.7l3.95,3.07c-2.94,3.95-7.64,6.45-13.53,6.45ZM430.84,571.57h18.92c-.19-4.64-3.38-8.52-8.96-8.52-5.2,0-8.83,3.07-9.96,8.52ZM487.53,582.97l4.2,3.2c-2.94,3.95-7.52,6.45-13.28,6.45-10.46,0-17.16-7.83-17.16-17.04s6.7-17.04,17.16-17.04c5.7,0,10.34,2.57,13.28,6.45l-4.2,3.2c-1.94-2.76-5.14-4.64-9.08-4.64-6.76,0-11.59,5.32-11.59,12.03s4.82,12.03,11.65,12.03c3.88,0,7.08-1.88,9.02-4.64ZM499.06,544.39h5.32v18.98c2.57-2.82,5.83-4.82,10.52-4.82,7.08,0,12.34,4.76,12.34,13.72v19.11h-5.32v-18.92c0-5.64-3.13-8.89-8.08-8.89-4.64,0-7.45,2.69-9.46,5.95v21.86h-5.32v-46.98ZM552.49,592.62c-10.65,0-17.23-7.83-17.23-17.04s6.14-17.04,15.91-17.04c8.58,0,14.16,6.01,14.16,13.78,0,1.25-.19,2.44-.38,3.32h-24.24c.19,7.58,5.01,12.15,11.78,12.15,4.07,0,7.52-1.88,9.58-4.7l3.95,3.07c-2.94,3.95-7.64,6.45-13.53,6.45ZM541.09,571.57h18.92c-.19-4.64-3.38-8.52-8.96-8.52-5.2,0-8.83,3.07-9.96,8.52ZM574.36,559.79h5.32v3.95c2.32-2.76,5.2-4.57,9.21-4.57,1,0,1.94.13,2.69.38v5.2c-.94-.25-1.88-.38-3.13-.38-4.13,0-6.83,2.13-8.77,5.32v21.67h-5.32v-31.57ZM620.9,582.97l4.2,3.2c-2.94,3.95-7.52,6.45-13.28,6.45-10.46,0-17.16-7.83-17.16-17.04s6.7-17.04,17.16-17.04c5.7,0,10.33,2.57,13.28,6.45l-4.2,3.2c-1.94-2.76-5.14-4.64-9.08-4.64-6.76,0-11.59,5.32-11.59,12.03s4.82,12.03,11.65,12.03c3.88,0,7.08-1.88,9.02-4.64ZM632.43,544.39h5.32v18.98c2.57-2.82,5.83-4.82,10.52-4.82,7.08,0,12.34,4.76,12.34,13.72v19.11h-5.32v-18.92c0-5.64-3.13-8.89-8.08-8.89-4.64,0-7.45,2.69-9.46,5.95v21.86h-5.32v-46.98ZM685.86,592.62c-10.65,0-17.22-7.83-17.22-17.04s6.14-17.04,15.91-17.04c8.58,0,14.16,6.01,14.16,13.78,0,1.25-.19,2.44-.38,3.32h-24.24c.19,7.58,5.01,12.15,11.78,12.15,4.07,0,7.52-1.88,9.58-4.7l3.95,3.07c-2.94,3.95-7.64,6.45-13.53,6.45ZM674.46,571.57h18.92c-.19-4.64-3.38-8.52-8.96-8.52-5.2,0-8.83,3.07-9.96,8.52Z"/>
  </g>
  <g id="sies-logo-artwork">
    <rect fill="#2b7758" x="798.83" y="136.3" width="36.54" height="124.2"/>
    <rect fill="#34bab5" x="749.2" y="183.95" width="36.54" height="76.54"/>
    <polygon fill="#009081" points="699.57 297.78 702.29 297.78 736.12 260.5 736.12 161.48 699.57 161.48 699.57 297.78"/>
  </g>
</svg>
